<svg xmlns="http://www.w3.org/2000/svg" width="130" height="39" fill="none"><g fill="#fff" clip-path="url(#a)"><path fill-rule="evenodd" d="m16.036.679-.546.243-.5.515-.5.516-.514.826-.515.826v.223l-.183.352-.182.351-.001.208v.208l-.123.076-.123.075v.6h-.189l-.152.583-.153.583-.13.43-.129.43-.183.798-.183.798-.18.92-.179.921-.11.86-.11.859-.15 1.289-.15 1.29.006 3.928.006 3.928.138 1.29.138 1.289.116.92.116.921.192.982.191.983.124.66.123.66.118.222.119.222v.615l.108.067.108.068.084.446.083.446.1.2.098.2.15.49.149.492.386.798.386.798.091.04.092.041v.289l.306.331.306.332v.135l.326.367.326.368h.327v.216l.275.084.276.084.413.105.413.105.627-.2.627-.199.704-.715.703-.714v-.362h.217l.076-.215.077-.215.427-.794.427-.794.004-.188.004-.189.178-.236.179-.237.043.053.043.052.295.553.294.552.153.162.153.163v.224l.569.554.568.555h.311l.048.144.048.144.605.009.605.01.428-.21.428-.21.313-.281.313-.282.513-.726.514-.726v-.328h.216l.066-.215.067-.215.437-1.21.437-1.209v-.469l.111-.213.111-.213.207-.982.207-.983.11-.43.112-.43.123-1.043.123-1.043.197-2.618.196-2.617-.193-3.03-.193-3.03-.18-1.228-.182-1.228-.12-.675-.119-.675-.184-.737-.184-.736-.208-.737-.208-.737-.061-.278-.061-.278-.108-.067-.108-.066v-.456l-.374-.716-.375-.717-.145-.245-.146-.246-.062-.061-.062-.062-.345-.465-.346-.465-.47-.312-.47-.312-.756.003-.755.004-.325.21-.325.211-.428.442-.428.442-.154.244-.154.244-.082.184-.082.184-.073.062-.072.061-.148.338-.148.337h-.22l-.152-.399-.152-.399-.318-.675-.319-.675-.489-.798-.489-.798-.332-.339-.331-.338-.608-.306-.608-.306-.41.008-.411.009-.546.243Zm-5.512 2.35-1.04.51-.061.067-.061.066-.245.154-.245.155-.183.085-.184.085-.157.129-.157.129-.17.153-.171.154h-.262v.204l-.643.445-.643.446-.883.895-.882.895-.376.43-.375.43-.206.337-.206.337h-.192v.256l-.466.64-.465.639-.514 1.017-.513 1.017v.483H.979v.6l-.112.068-.111.07-.087.516-.087.517-.1.188-.1.19-.191.905-.191.905.002 2.164.002 2.164.218 1.07.218 1.07.086.086.086.086v.521l.225.64.224.64.082.082.08.081v.321l.331.71.33.709.37.614.367.613.097.041.097.041v.348h.2l.259.46.26.46.588.672.59.672.751.74.752.74.38.338.378.338H7.2l.04.092.041.092.673.507.673.507.857.48.857.479.707.333.707.334h.36v-.116l-.887-.894-.887-.894-.643-.888-.642-.888v-.132l-.49-.778-.49-.777v-.26l-.105-.041-.105-.041-.506-1.272-.507-1.271v-.451l-.109-.067-.108-.067-.083-.446-.084-.447-.105-.2-.105-.199-.145-.737-.144-.736-.11-.553-.11-.552-.126-.921-.126-.92V16.93l.122-.859.123-.86.121-.613.122-.614.166-.737.167-.736.066-.185.066-.184.217-.736.217-.737.15-.368.148-.369.156-.43.155-.429.319-.675.318-.675.794-1.29.795-1.289.127-.14.127-.139.611-.715.612-.715.287-.25.287-.25.115-.215.115-.215-.218.006-.218.006-1.04.51Zm9.34 2.807.267.137.329.376.329.376-.07.377-.07.376-.168.414-.167.414v.692l-.122.076-.122.076v.587l-.184.707-.184.707v.934l-.112.213-.112.214-.207 1.964-.206 1.964.052 3.745.052 3.744.159 1.35.158 1.351.07.184.069.185.164 1.043.164 1.044.071.46.071.462.11.068.11.068v.73l.183.44.183.441v.648l-.31.336-.311.337h-.358v.245h-.865l-.332-.21-.332-.21-.519-.552-.519-.554-.193-.434-.193-.434-.128-.307-.129-.307-.1-.2-.1-.2-.083-.445-.083-.446-.109-.068-.108-.067v-.708l-.106-.066-.107-.065-.083-.648-.083-.647-.11-.368-.11-.369-.185-1.473-.185-1.473-.088-1.412-.087-1.412.005-1.043.005-1.044.137-1.78.137-1.78.121-.491.121-.492.003-.514.003-.514.106-.066.106-.066.083-.736.083-.736.117-.072.117-.072v-.708l.108-.067.109-.068.082-.439.082-.44.323-.758.324-.76.31-.48.312-.48.32-.322.321-.322.293-.14.292-.142.405-.008.406-.008.267.138Zm6.926 4.374.376.214v.084l.001.083.157.162.157.163.323.675.324.675.201.737.201.736.11.43.11.43.156 1.043.155 1.044v5.893l-.16 1.043-.161 1.044-.113.213-.113.213v.451l-.196.605-.195.605-.294.648-.294.648v.135l-.366.366-.365.366-.41.067-.41.067-.31-.29-.309-.288-.384-.628-.384-.627v-.525h-.216l-.069-.338-.068-.338-.247-1.289-.248-1.289-.145-1.614-.145-1.614.088-1.7.087-1.701.1-.921.1-.921.148-.86.15-.859.11-.116.11-.117v-.445l.117-.214.117-.213.213-.49.213-.492.301-.405.302-.405.317-.173.318-.173.081-.005.082-.005.377.215Zm5.98 4.008-.28.137-.229.47-.23.471-.115.45-.115.449-.127.614-.126.613.053 2.395.053 2.393.13.307.13.307.151.51.15.508.296.32.295.32h.496l.237-.127.237-.127v-.34l.091-.04.092-.041.214-.41.215-.408v-.545l.153-.154.152-.153v-5.328l-.16-.553-.161-.552-.378-.757-.378-.756-.284-.055-.284-.054-.279.136Z" clip-rule="evenodd"/><path d="M59.888 20.794H52.99v7.456h-2.38V10.692h10.588v2.185H52.99v5.756h6.897v2.161Zm4.922-7.237c-.826 0-1.506-.68-1.506-1.505 0-.85.68-1.506 1.506-1.506s1.506.656 1.506 1.506c0 .825-.68 1.505-1.506 1.505ZM63.693 28.25V16.374h2.283V28.25h-2.283Zm7.88 0H69.29V16.374h2.064l.243 1.822c.753-1.36 2.259-2.162 3.934-2.162 3.133 0 4.566 1.919 4.566 4.955v7.261h-2.283v-6.751c0-2.405-1.117-3.376-2.866-3.376-2.137 0-3.375 1.53-3.375 3.837v6.29Zm10.909-5.926c0-3.715 2.355-6.29 5.828-6.29 2.987 0 5.076 1.7 5.489 4.348h-2.283c-.389-1.506-1.603-2.308-3.133-2.308-2.161 0-3.643 1.652-3.643 4.226 0 2.55 1.384 4.201 3.546 4.201 1.627 0 2.841-.85 3.254-2.258h2.283c-.461 2.574-2.671 4.298-5.537 4.298-3.497 0-5.804-2.477-5.804-6.217Zm12.972-.024c0-3.667 2.623-6.241 6.193-6.241 3.546 0 6.169 2.574 6.169 6.241s-2.623 6.241-6.169 6.241c-3.57 0-6.193-2.574-6.193-6.24Zm2.308 0c0 2.477 1.578 4.201 3.885 4.201 2.283 0 3.886-1.724 3.886-4.2 0-2.478-1.603-4.202-3.886-4.202-2.307 0-3.886 1.724-3.886 4.201Zm19.381-6.023v2.089h-1.02c-2.162 0-3.498 1.311-3.498 3.594v6.29h-2.282V16.399h2.137l.145 1.797c.486-1.239 1.676-2.064 3.303-2.064.413 0 .753.048 1.215.145Zm6.838 12.264c-3.497 0-5.901-2.525-5.901-6.217 0-3.715 2.355-6.29 5.804-6.29 3.376 0 5.585 2.332 5.585 5.853v.85l-9.179.025c.17 2.5 1.481 3.885 3.74 3.885 1.772 0 2.938-.728 3.327-2.088h2.137c-.583 2.55-2.574 3.982-5.513 3.982Zm-.097-10.588c-1.992 0-3.254 1.19-3.546 3.279h6.849c0-1.968-1.287-3.279-3.303-3.279Z"/></g><defs><clipPath id="a"><path fill="#fff" d="M0 0h130v39H0z"/></clipPath></defs></svg>