<svg width="44" height="44" viewBox="0 0 44 44" fill="none" xmlns="http://www.w3.org/2000/svg">
<g clip-path="url(#clip0_484_94929)">
<path d="M26.4884 20.7326L11.0698 18.0117V38.1167C11.0698 39.0348 11.8141 39.7792 12.7323 39.7792H39.3376C40.2557 39.7792 41.0001 39.0348 41.0001 38.1167V30.7094L26.4884 20.7326Z" fill="#185C37"/>
<path d="M26.4884 3.5H12.7323C11.8141 3.5 11.0698 4.24432 11.0698 5.16248V12.5698L26.4884 21.6395L34.6512 24.3605L41.0001 21.6395V12.5698L26.4884 3.5Z" fill="#21A366"/>
<path d="M11.0698 12.5723H26.4884V21.642H11.0698V12.5723Z" fill="#107C41"/>
<path opacity="0.1" d="M22.105 10.7598H11.0698V33.4342H22.105C23.0219 33.4312 23.7645 32.6886 23.7675 31.7717V12.4222C23.7645 11.5053 23.0219 10.7627 22.105 10.7598Z" fill="#27272A"/>
<path opacity="0.2" d="M21.198 11.6641H11.0698V34.3385H21.198C22.115 34.3355 22.8575 33.5929 22.8605 32.676V13.3265C22.8575 12.4096 22.115 11.667 21.198 11.6641Z" fill="#27272A"/>
<path opacity="0.2" d="M21.198 11.6641H11.0698V32.5245H21.198C22.115 32.5215 22.8575 31.779 22.8605 30.862V13.3265C22.8575 12.4096 22.115 11.667 21.198 11.6641Z" fill="#27272A"/>
<path opacity="0.2" d="M20.2911 11.6641H11.0698V32.5245H20.2911C21.208 32.5215 21.9506 31.779 21.9535 30.862V13.3265C21.9506 12.4096 21.208 11.667 20.2911 11.6641Z" fill="#27272A"/>
<path d="M3.66248 11.6641H20.291C21.2092 11.6641 21.9535 12.4084 21.9535 13.3265V29.9551C21.9535 30.8732 21.2092 31.6175 20.291 31.6175H3.66248C2.74432 31.6176 2 30.8732 2 29.9551V13.3265C2 12.4084 2.74432 11.6641 3.66248 11.6641Z" fill="url(#paint0_linear_484_94929)"/>
<path d="M7.14893 27.0428L10.6462 21.6236L7.44188 16.2344H10.0195L11.7682 19.6809C11.9296 20.0083 12.0402 20.2514 12.1001 20.4119H12.1228C12.2377 20.1507 12.3586 19.897 12.4856 19.6509L14.3549 16.2362H16.7212L13.4352 21.5937L16.8046 27.0428H14.2868L12.267 23.2598C12.1719 23.0989 12.0911 22.9298 12.0258 22.7546H11.9958C11.9367 22.9262 11.8582 23.0906 11.7618 23.2444L9.68213 27.0428H7.14893Z" fill="white"/>
<path d="M39.3374 3.5H26.4883V12.5698H40.9999V5.16248C40.9999 4.24432 40.2556 3.5 39.3374 3.5Z" fill="#33C481"/>
<path d="M26.4883 21.6406H40.9999V30.7104H26.4883V21.6406Z" fill="#107C41"/>
</g>
<defs>
<linearGradient id="paint0_linear_484_94929" x1="5.46632" y1="10.365" x2="18.4872" y2="32.9166" gradientUnits="userSpaceOnUse">
<stop stop-color="#18884F"/>
<stop offset="0.5" stop-color="#117E43"/>
<stop offset="1" stop-color="#0B6631"/>
</linearGradient>
<clipPath id="clip0_484_94929">
<rect width="39" height="36.2791" fill="white" transform="translate(2 3.5)"/>
</clipPath>
</defs>
</svg>
